<svg xmlns="http://www.w3.org/2000/svg" viewBox="0 0 100 100">
<rect width="100" height="100" fill="#EE1C25"/>
<g fill="#FFFF00">
  <polygon points="30,18 34.5,31.8 49.3,31.8 37.4,40.5 41.9,54.3 30,45.6 18.1,54.3 22.6,40.5 10.7,31.8 25.5,31.8"/>
  <polygon points="55,10 57,16 63,16 58,19.5 60,25.5 55,22 50,25.5 52,19.5 47,16 53,16"/>
  <polygon points="66,22 68,28 74,28 69,31.5 71,37.5 66,34 61,37.5 63,31.5 58,28 64,28"/>
  <polygon points="66,40 68,46 74,46 69,49.5 71,55.5 66,52 61,55.5 63,49.5 58,46 64,46"/>
  <polygon points="55,52 57,58 63,58 58,61.5 60,67.5 55,64 50,67.5 52,61.5 47,58 53,58"/>
</g>
</svg>
