<svg xmlns="http://www.w3.org/2000/svg" viewBox="0 0 100 100">
<rect width="100" height="100" fill="#fff"/>
<!-- Taegeuk -->
<circle cx="50" cy="50" r="24" fill="#CD2E3A"/>
<path d="M50,26 A12,12,0,0,0,50,50 A12,12,0,0,1,50,74 A24,24,0,0,1,50,26Z" fill="#0047A0"/>
<circle cx="50" cy="38" r="8" fill="#CD2E3A"/>
<circle cx="50" cy="62" r="8" fill="#0047A0"/>
<!-- Trigrams -->
<g stroke="#000" stroke-width="3.5" stroke-linecap="round">
  <line x1="15" y1="15" x2="28" y2="15"/><line x1="15" y1="21" x2="28" y2="21"/><line x1="15" y1="27" x2="28" y2="27"/>
  <line x1="72" y1="15" x2="85" y2="15"/><line x1="72" y1="21" x2="78" y2="21"/><line x1="79" y1="21" x2="85" y2="21"/><line x1="72" y1="27" x2="85" y2="27"/>
  <line x1="15" y1="73" x2="28" y2="73"/><line x1="15" y1="79" x2="21" y2="79"/><line x1="22" y1="79" x2="28" y2="79"/><line x1="15" y1="85" x2="28" y2="85"/>
  <line x1="72" y1="73" x2="78" y2="73"/><line x1="79" y1="73" x2="85" y2="73"/><line x1="72" y1="79" x2="78" y2="79"/><line x1="79" y1="79" x2="85" y2="79"/><line x1="72" y1="85" x2="78" y2="85"/><line x1="79" y1="85" x2="85" y2="85"/>
</g>
</svg>
