<svg xmlns="http://www.w3.org/2000/svg" viewBox="0 0 100 100">
<rect width="100" height="50" fill="#EE2536"/>
<rect y="50" width="100" height="50" fill="#fff"/>
<!-- Crescent -->
<circle cx="30" cy="25" r="11" fill="#fff"/>
<circle cx="33" cy="23" r="9.5" fill="#EE2536"/>
<!-- 5 stars in pentagon -->
<g fill="#fff">
  <polygon points="46,11 47.5,15.5 52,15.5 48.5,18.5 49.8,23 46,20 42.2,23 43.5,18.5 40,15.5 44.5,15.5"/>
  <polygon points="38,20 39.5,24.5 44,24.5 40.5,27.5 41.8,32 38,29 34.2,32 35.5,27.5 32,24.5 36.5,24.5"/>
  <polygon points="54,20 55.5,24.5 60,24.5 56.5,27.5 57.8,32 54,29 50.2,32 51.5,27.5 48,24.5 52.5,24.5"/>
  <polygon points="41,31 42.5,35.5 47,35.5 43.5,38.5 44.8,43 41,40 37.2,43 38.5,38.5 35,35.5 39.5,35.5"/>
  <polygon points="51,31 52.5,35.5 57,35.5 53.5,38.5 54.8,43 51,40 47.2,43 48.5,38.5 45,35.5 49.5,35.5"/>
</g>
</svg>
