<svg xmlns="http://www.w3.org/2000/svg" viewBox="0 0 100 100">
<rect width="100" height="100" fill="#FE0000"/>
<rect width="50" height="50" fill="#000095"/>
<g transform="translate(25,25)" fill="#fff">
  <circle r="12"/>
  <circle r="8" fill="#000095"/>
  <!-- 12 rays -->
  <g>
    <polygon points="0,-15 2,-8 -2,-8"/><polygon points="0,-15 2,-8 -2,-8" transform="rotate(30)"/>
    <polygon points="0,-15 2,-8 -2,-8" transform="rotate(60)"/><polygon points="0,-15 2,-8 -2,-8" transform="rotate(90)"/>
    <polygon points="0,-15 2,-8 -2,-8" transform="rotate(120)"/><polygon points="0,-15 2,-8 -2,-8" transform="rotate(150)"/>
    <polygon points="0,-15 2,-8 -2,-8" transform="rotate(180)"/><polygon points="0,-15 2,-8 -2,-8" transform="rotate(210)"/>
    <polygon points="0,-15 2,-8 -2,-8" transform="rotate(240)"/><polygon points="0,-15 2,-8 -2,-8" transform="rotate(270)"/>
    <polygon points="0,-15 2,-8 -2,-8" transform="rotate(300)"/><polygon points="0,-15 2,-8 -2,-8" transform="rotate(330)"/>
  </g>
</g>
</svg>
