<svg xmlns="http://www.w3.org/2000/svg" viewBox="0 0 100 100">
<!-- Stripes -->
<rect width="100" height="100" fill="#B22234"/>
<rect y="7.7" width="100" height="7.7" fill="#fff"/>
<rect y="23.1" width="100" height="7.7" fill="#fff"/>
<rect y="38.5" width="100" height="7.7" fill="#fff"/>
<rect y="53.8" width="100" height="7.7" fill="#fff"/>
<rect y="69.2" width="100" height="7.7" fill="#fff"/>
<rect y="84.6" width="100" height="7.7" fill="#fff"/>
<!-- Blue canton -->
<rect width="46" height="54" fill="#3C3B6E"/>
<!-- Stars (simplified 3x3 grid) -->
<g fill="#fff">
  <polygon points="8,9 9.5,13.5 14,13.5 10.5,16.5 12,21 8,18 4,21 5.5,16.5 2,13.5 6.5,13.5"/>
  <polygon points="23,9 24.5,13.5 29,13.5 25.5,16.5 27,21 23,18 19,21 20.5,16.5 17,13.5 21.5,13.5"/>
  <polygon points="38,9 39.5,13.5 44,13.5 40.5,16.5 42,21 38,18 34,21 35.5,16.5 32,13.5 36.5,13.5"/>
  <polygon points="8,25 9.5,29.5 14,29.5 10.5,32.5 12,37 8,34 4,37 5.5,32.5 2,29.5 6.5,29.5"/>
  <polygon points="23,25 24.5,29.5 29,29.5 25.5,32.5 27,37 23,34 19,37 20.5,32.5 17,29.5 21.5,29.5"/>
  <polygon points="38,25 39.5,29.5 44,29.5 40.5,32.5 42,37 38,34 34,37 35.5,32.5 32,29.5 36.5,29.5"/>
  <polygon points="8,41 9.5,45.5 14,45.5 10.5,48.5 12,53 8,50 4,53 5.5,48.5 2,45.5 6.5,45.5"/>
  <polygon points="23,41 24.5,45.5 29,45.5 25.5,48.5 27,53 23,50 19,53 20.5,48.5 17,45.5 21.5,45.5"/>
  <polygon points="38,41 39.5,45.5 44,45.5 40.5,48.5 42,53 38,50 34,53 35.5,48.5 32,45.5 36.5,45.5"/>
</g>
</svg>
